<?xml version="1.0" encoding="utf-8"?>
<!-- Generator: Adobe Illustrator 23.0.2, SVG Export Plug-In . SVG Version: 6.00 Build 0)  -->
<svg version="1.1" id="Calque_1" xmlns="http://www.w3.org/2000/svg" xmlns:xlink="http://www.w3.org/1999/xlink" x="0px" y="0px"
	 viewBox="0 0 1366 750" style="enable-background:new 0 0 1366 750;" xml:space="preserve">
<style type="text/css">
	.st0{fill:#FFFFFF;}
</style>
<g>
	<g>
		<path class="st0" d="M1074.84,690.15c-260.13,0-520.26,0-780.39,0c0-208.26,0-416.53,0-624.79c260.13,0,520.26,0,780.39,0
			C1074.84,273.62,1074.84,481.89,1074.84,690.15z M484.65,187.81c0,126.87,0,251.23,0,375.52c2.09,0,3.03,0.29,3.62-0.04
			c34.03-19.49,68.05-39.01,101.99-58.67c1.51-0.87,3.18-3.03,3.22-4.63c0.27-11.67,0.15-23.35,0.15-36.74
			c-4.39,2.27-6.78,3.4-9.07,4.7c-18.19,10.39-36.21,21.09-54.59,31.13c-8.99,4.91-11.77,2.77-11.77-7.78
			c-0.02-76.56-0.03-153.11,0-229.67c0-10.42,2.78-12.43,11.91-7.38c21.12,11.68,41.97,23.85,62.88,35.91
			c57.63,33.23,115.29,66.42,172.78,99.89c7.47,4.35,10.23,2.54,10.49-5.36c0.2-5.98-0.35-12,0.21-17.93
			c0.8-8.46-3.46-13.19-10.25-17.07c-35.4-20.24-70.72-40.61-106.03-61.01c-38.05-21.97-76.02-44.08-114.09-66.01
			C526.27,211.24,506.29,200.07,484.65,187.81z M777.89,290.58c20.21-11.91,37.42-22.36,54.96-32.22
			c5.28-2.97,11.48-4.31,17.25-6.39c1.02,5.56,2.35,11.08,2.97,16.68c0.48,4.33,0.04,8.76,0.04,13.15
			c0.12,69.78,0.26,139.56,0.36,209.34c0.02,11-2.67,12.98-12.7,7.43c-31.5-17.43-62.85-35.15-94.02-53.17
			c-47.32-27.36-94.47-55-141.6-82.69c-7.03-4.13-9.46-1.59-9.75,5.41c-0.17,3.98,0.2,7.99-0.13,11.96
			c-0.82,10.04,0.33,18.37,10.84,23.97c19.18,10.22,37.69,21.68,56.53,32.54c60.06,34.64,120.13,69.26,180.22,103.83
			c14.22,8.18,28.55,16.17,44.34,25.11c0-126.85,0-251.23,0-376c-2.3,0.28-3.62,0.09-4.53,0.61
			c-33.69,19.32-67.36,38.66-100.93,58.18c-1.77,1.03-3.64,3.66-3.7,5.61C777.72,265.27,777.89,276.63,777.89,290.58z"/>
		<path d="M484.65,187.81c21.65,12.27,41.62,23.43,61.45,34.85c38.07,21.93,76.04,44.04,114.09,66.01
			c35.31,20.39,70.63,40.77,106.03,61.01c6.79,3.88,11.04,8.61,10.25,17.07c-0.56,5.93-0.01,11.96-0.21,17.93
			c-0.26,7.9-3.02,9.71-10.49,5.36c-57.49-33.47-115.15-66.66-172.78-99.89c-20.91-12.06-41.76-24.23-62.88-35.91
			c-9.13-5.04-11.9-3.04-11.91,7.38c-0.03,76.56-0.02,153.11,0,229.67c0,10.56,2.77,12.7,11.77,7.78
			c18.38-10.04,36.4-20.73,54.59-31.13c2.29-1.31,4.67-2.43,9.07-4.7c0,13.39,0.13,25.07-0.15,36.74c-0.04,1.6-1.71,3.75-3.22,4.63
			c-33.94,19.66-67.96,39.17-101.99,58.67c-0.58,0.33-1.53,0.04-3.62,0.04C484.65,439.04,484.65,314.68,484.65,187.81z"/>
		<path d="M777.89,290.58c0-13.95-0.18-25.31,0.17-36.65c0.06-1.94,1.92-4.57,3.7-5.61c33.57-19.53,67.24-38.87,100.93-58.18
			c0.91-0.52,2.23-0.33,4.53-0.61c0,124.77,0,249.15,0,376c-15.79-8.93-30.12-16.92-44.34-25.11
			c-60.09-34.58-120.16-69.2-180.22-103.83c-18.84-10.86-37.35-22.32-56.53-32.54c-10.51-5.6-11.65-13.93-10.84-23.97
			c0.32-3.96-0.04-7.98,0.13-11.96c0.29-7,2.73-9.54,9.75-5.41c47.13,27.68,94.28,55.33,141.6,82.69
			c31.17,18.02,62.52,35.74,94.02,53.17c10.03,5.55,12.71,3.58,12.7-7.43c-0.11-69.78-0.24-139.56-0.36-209.34
			c-0.01-4.39,0.43-8.82-0.04-13.15c-0.62-5.6-1.95-11.13-2.97-16.68c-5.78,2.09-11.97,3.42-17.25,6.39
			C815.31,268.22,798.1,278.66,777.89,290.58z"/>
	</g>
</g>
</svg>
